<svg width="37" height="36" viewBox="0 0 37 36" fill="none" xmlns="http://www.w3.org/2000/svg">
<g clip-path="url(#clip0_1_773)">
<g clip-path="url(#clip1_1_773)">
<g clip-path="url(#clip2_1_773)">
<path d="M18.6225 35.8539C28.5206 35.8539 36.5375 27.837 36.5375 17.9389C36.5375 8.04089 28.5206 0.0239258 18.6225 0.0239258C8.72448 0.0239258 0.70752 8.04089 0.70752 17.9389C0.70752 27.837 8.72448 35.8539 18.6225 35.8539ZM13.248 15.1621H16.4391V12.2061C16.4391 12.2061 16.3048 10.2803 17.7716 8.81347C19.2383 7.34668 21.209 7.49224 24.0194 7.72738V11.0193H21.948C21.948 11.0193 21.0746 10.9969 20.6715 11.4671C20.2573 11.9374 20.3021 12.6092 20.3021 12.7772V15.1509H23.8962L23.4372 18.8235H20.2797V28.2848H16.4615V18.8123H13.248V15.1621Z" fill="white"/>
</g>
</g>
</g>
<defs>
<clipPath id="clip0_1_773">
<rect width="35.83" height="35.83" fill="white" transform="translate(0.70752 0.0239258)"/>
</clipPath>
<clipPath id="clip1_1_773">
<rect width="35.83" height="35.83" fill="white" transform="translate(0.70752 0.0239258)"/>
</clipPath>
<clipPath id="clip2_1_773">
<rect width="35.83" height="35.83" fill="white" transform="translate(0.70752 0.0239258)"/>
</clipPath>
</defs>
</svg>
