<svg width="37" height="36" viewBox="0 0 37 36" fill="none" xmlns="http://www.w3.org/2000/svg">
<g clip-path="url(#clip0_1_785)">
<g clip-path="url(#clip1_1_785)">
<g clip-path="url(#clip2_1_785)">
<path d="M18.185 35.8539C28.0792 35.8539 36.1 27.8331 36.1 17.9389C36.1 8.04474 28.0792 0.0239258 18.185 0.0239258C8.29084 0.0239258 0.27002 8.04474 0.27002 17.9389C0.27002 27.8331 8.29084 35.8539 18.185 35.8539Z" fill="white"/>
<path d="M18.185 35.8539C28.0792 35.8539 36.1 27.8331 36.1 17.9389C36.1 8.04474 28.0792 0.0239258 18.185 0.0239258C8.29084 0.0239258 0.27002 8.04474 0.27002 17.9389C0.27002 27.8331 8.29084 35.8539 18.185 35.8539Z" fill="white"/>
<path d="M18.1884 10.325C20.6517 10.325 20.9876 10.325 21.9954 10.325C24.5706 10.437 25.6903 11.6687 25.8023 14.132C25.8023 15.1397 25.8023 15.3636 25.8023 17.9389C25.8023 20.4022 25.8023 20.7381 25.8023 21.7459C25.6903 24.2092 24.4587 25.4408 21.9954 25.5528C20.9876 25.5528 20.7637 25.5528 18.1884 25.5528C15.7251 25.5528 15.3892 25.5528 14.3815 25.5528C11.8062 25.4408 10.6865 24.2092 10.5746 21.7459C10.5746 20.7381 10.5746 20.5142 10.5746 17.9389C10.5746 15.4756 10.5746 15.1397 10.5746 14.132C10.6865 11.6687 11.9182 10.437 14.3815 10.325C15.3892 10.325 15.7251 10.325 18.1884 10.325ZM18.1884 8.64551C15.6131 8.64551 15.3892 8.64551 14.3815 8.64551C11.0224 8.75748 9.11896 10.6609 9.00699 14.02C9.00699 15.0277 8.89502 15.3636 8.89502 17.8269C8.89502 20.2903 8.89502 20.6262 8.89502 21.6339C9.00699 24.9929 10.9105 26.8964 14.2695 27.0084C15.2772 27.0084 15.6131 27.0084 18.0765 27.0084C20.5398 27.0084 20.8757 27.0084 21.8834 27.0084C25.2425 26.8964 27.1459 24.9929 27.2579 21.6339C27.2579 20.6262 27.3699 20.2903 27.3699 17.8269C27.3699 15.3636 27.3699 15.0277 27.3699 14.02C27.2579 10.6609 25.3544 8.75748 21.9954 8.64551C20.9876 8.64551 20.7637 8.64551 18.1884 8.64551ZM18.1884 13.2362C15.5012 13.2362 13.3738 15.3636 13.3738 18.0509C13.3738 20.7381 15.5012 22.8655 18.1884 22.8655C20.8757 22.8655 23.0031 20.7381 23.0031 18.0509C23.0031 15.3636 20.8757 13.2362 18.1884 13.2362ZM18.1884 21.074C16.5089 21.074 15.0533 19.7304 15.0533 17.9389C15.0533 16.2594 16.3969 14.8038 18.1884 14.8038C19.9799 14.8038 21.3236 16.1474 21.3236 17.9389C21.3236 19.7304 19.868 21.074 18.1884 21.074ZM23.1151 11.8926C22.4432 11.8926 21.9954 12.3405 21.9954 13.0123C21.9954 13.6841 22.4432 14.132 23.1151 14.132C23.7869 14.132 24.2347 13.6841 24.2347 13.0123C24.2347 12.3405 23.7869 11.8926 23.1151 11.8926Z" fill="black"/>
</g>
</g>
</g>
<defs>
<clipPath id="clip0_1_785">
<rect width="35.83" height="35.83" fill="white" transform="translate(0.27002 0.0239258)"/>
</clipPath>
<clipPath id="clip1_1_785">
<rect width="35.83" height="35.83" fill="white" transform="translate(0.27002 0.0239258)"/>
</clipPath>
<clipPath id="clip2_1_785">
<rect width="35.83" height="35.83" fill="white" transform="translate(0.27002 0.0239258)"/>
</clipPath>
</defs>
</svg>
