<svg width="36" height="36" viewBox="0 0 36 36" fill="none" xmlns="http://www.w3.org/2000/svg">
<path fill-rule="evenodd" clip-rule="evenodd" d="M21.7744 13.0951V13.6543V21.1954C21.7744 22.9927 21.0634 24.7023 19.7933 25.9724C18.5231 27.2426 16.8136 27.9535 15.0162 27.9535C13.2188 27.9535 11.5093 27.2426 10.2392 25.9724C8.96902 24.7023 8.25805 22.9927 8.25805 21.1954C8.25805 19.398 8.96902 17.6884 10.2392 16.4183C11.5093 15.1481 13.2188 14.4372 15.0162 14.4372H16.2704V17.992H15.0162C14.1615 17.992 13.3546 18.3275 12.7475 18.9346C12.1404 19.5418 11.8049 20.3486 11.8049 21.2033C11.8049 22.0581 12.1404 22.8649 12.7475 23.472C13.3546 24.0792 14.1615 24.4147 15.0162 24.4147C15.871 24.4147 16.6778 24.0792 17.2849 23.472C17.892 22.8649 18.2276 22.0581 18.2276 21.2113V7.65504H21.7664L21.9422 7.98256C22.4934 9.00508 23.2363 9.97167 24.1549 10.6826C24.8659 11.2338 25.6727 11.6253 26.5674 11.777L27.1985 11.8889L26.5195 15.3159L25.9124 15.2041C25.1934 15.0762 24.4825 14.8606 23.8194 14.541C23.0605 14.1895 22.3496 13.7102 21.7744 13.0951ZM17.7243 0.369629C8.0903 0.369629 0.285645 8.17428 0.285645 17.8083C0.285645 27.4343 8.0903 35.2389 17.7163 35.2389C27.3423 35.2389 35.147 27.4343 35.147 17.8083C35.1549 8.17428 27.3503 0.369629 17.7243 0.369629Z" fill="white"/>
</svg>
