<svg width="395" height="86" viewBox="0 0 395 86" fill="none" xmlns="http://www.w3.org/2000/svg">
<mask id="mask0_1_733" style="mask-type:luminance" maskUnits="userSpaceOnUse" x="0" y="0" width="395" height="86">
<path d="M394.997 0.213867H0.77002V85.9474H394.997V0.213867Z" fill="white"/>
</mask>
<g mask="url(#mask0_1_733)">
<path d="M173.014 0.213867V32.4065L146.542 0.213867H137.676V49.026H146.964V15.9977L173.919 49.026H182.368V0.213867H173.014Z" fill="white"/>
<mask id="mask1_1_733" style="mask-type:luminance" maskUnits="userSpaceOnUse" x="0" y="0" width="395" height="86">
<path d="M394.997 0.213867H0.77002V85.9474H394.997V0.213867Z" fill="white"/>
</mask>
<g mask="url(#mask1_1_733)">
<path d="M220.496 42.6013V47.9782C218.548 49.1223 216.33 49.725 214.071 49.7238C210.928 49.7238 209.113 48.0479 208.484 46.1613C206.319 48.606 202.898 49.7238 200.104 49.7238C194.657 49.7238 189.7 46.5116 189.7 40.6458C189.7 34.8494 193.959 31.2879 200.454 29.4725C202.769 28.8094 205.125 28.297 207.507 27.9386V26.9589C207.507 23.4672 205.831 21.6518 202.548 21.6518C198.848 21.6518 195.286 23.0486 191.795 25.7022V18.2996C194.658 15.8553 199.057 14.5288 203.806 14.5288C207.646 14.5288 211.139 15.646 213.233 17.741C215.258 19.7657 216.445 22.491 216.445 25.9812V41.6933C216.445 42.7408 216.725 43.2994 217.563 43.4389C218.401 43.6482 219.588 43.1599 220.496 42.6008M202.968 43.3687C203.835 43.3661 204.689 43.163 205.465 42.7754C206.24 42.3878 206.915 41.8261 207.437 41.1342V33.2438C201.432 34.082 198.22 35.9651 198.22 39.5984C198.22 41.9026 200.035 43.3692 202.97 43.3692" fill="white"/>
<path d="M227.337 38.7606V22.2108H222.379V19.9061L236.135 6.70801V15.2971H246.4V22.2108H236.136V37.9244C236.136 40.9272 237.602 42.6031 239.907 42.8822H241.025C243.329 42.8822 245.424 42.044 247.519 40.718V47.5609C244.855 49.0733 241.853 49.8901 238.79 49.9359C232.016 49.9359 227.338 46.654 227.338 38.763" fill="white"/>
<path d="M254.364 5.66046C254.357 4.996 254.483 4.33683 254.732 3.72104C254.982 3.10526 255.351 2.54508 255.819 2.07288C256.286 1.60069 256.843 1.22586 257.456 0.970044C258.069 0.714233 258.727 0.58252 259.392 0.58252C260.056 0.58252 260.714 0.714233 261.328 0.970044C261.941 1.22586 262.497 1.60069 262.965 2.07288C263.432 2.54508 263.802 3.10526 264.051 3.72104C264.301 4.33683 264.426 4.996 264.42 5.66046C264.397 6.97896 263.857 8.2358 262.917 9.16021C261.976 10.0846 260.711 10.6026 259.392 10.6026C258.073 10.6026 256.807 10.0846 255.867 9.16021C254.926 8.2358 254.387 6.97896 254.364 5.66046ZM263.864 49.0254H254.923V15.297H263.862L263.864 49.0254Z" fill="white"/>
<path d="M270.356 32.1269C270.356 22.0015 278.317 14.3896 288.792 14.3896C299.547 14.3896 307.298 21.861 307.298 32.1269C307.298 40.9253 300.942 49.8642 288.722 49.8642C278.247 49.8642 270.356 42.2523 270.356 32.1269M279.783 32.1269C279.783 38.342 283.554 42.6021 288.792 42.6021C294.099 42.6021 297.94 38.342 297.94 32.1269C297.94 25.9118 294.1 21.6522 288.791 21.6522C283.554 21.6522 279.782 25.9123 279.782 32.1274" fill="white"/>
<path d="M321.955 15.2968V19.2768C324.539 15.8554 327.961 14.5269 332.29 14.5269C338.435 14.5269 344.162 17.9483 344.162 27.6551V49.0257H335.223V27.6571C335.223 25.2129 334.385 21.5118 329.776 21.5118C328.254 21.5582 326.774 22.0182 325.495 22.8426C324.215 23.6669 323.185 24.8244 322.514 26.1906V49.0252H313.575V15.2968H321.955Z" fill="white"/>
<path d="M381.589 42.6013V47.9782C379.641 49.1223 377.423 49.725 375.164 49.7238C372.021 49.7238 370.206 48.0479 369.578 46.1613C367.413 48.606 363.991 49.7238 361.198 49.7238C355.751 49.7238 350.793 46.5116 350.793 40.6458C350.793 34.8494 355.053 31.2879 361.548 29.4725C363.863 28.8094 366.219 28.297 368.6 27.9386V26.9589C368.6 23.4672 366.925 21.6518 363.642 21.6518C359.942 21.6518 356.38 23.0486 352.888 25.7022V18.2996C355.751 15.8553 360.151 14.5288 364.899 14.5288C368.74 14.5288 372.232 15.646 374.326 17.741C376.351 19.7657 377.538 22.491 377.538 25.9812V41.6933C377.538 42.7408 377.818 43.2994 378.656 43.4389C379.494 43.6482 380.682 43.1599 381.589 42.6008M364.061 43.3687C364.928 43.3661 365.783 43.163 366.558 42.7754C367.333 42.3878 368.008 41.8261 368.531 41.1342V33.2438C362.525 34.082 359.313 35.9651 359.313 39.5984C359.313 41.9026 361.128 43.3692 364.063 43.3692" fill="white"/>
<path d="M394.998 0.213379H386.129V49.026H394.998V0.213379Z" fill="white"/>
<path d="M189.829 65.2051V66.6791L188.355 67.0561C188.179 67.0816 188.02 67.1745 187.911 67.3152C187.802 67.4559 187.753 67.6334 187.772 67.8102V77.4759C187.772 82.789 184.961 84.9472 180.334 84.9472C175.261 84.9472 172.896 82.5139 172.896 77.2349V67.8092C172.909 67.6337 172.856 67.4596 172.749 67.3204C172.641 67.1812 172.486 67.0867 172.313 67.0551L170.942 66.6781V65.2041H179.205V66.6781L177.046 67.0893C176.864 67.122 176.701 67.2205 176.587 67.3658C176.473 67.5111 176.417 67.6933 176.429 67.8775V77.5432C176.429 81.6564 178.006 83.4045 180.919 83.4045C184.244 83.4045 185.478 81.2452 185.478 77.6461V67.8443C185.478 67.399 185.307 67.159 184.895 67.0902L182.736 66.6791V65.2051H189.829Z" fill="white"/>
<path d="M211.145 67.8443V84.6741H208.161L198.324 69.2861V82.1057C198.307 82.2873 198.362 82.4683 198.477 82.6095C198.593 82.7507 198.76 82.8406 198.941 82.8597L201.203 83.2367V84.6766H193.629V83.2367L195.617 82.8597C195.799 82.8406 195.965 82.7507 196.081 82.6095C196.196 82.4683 196.252 82.2873 196.234 82.1057V67.8443C196.252 67.6627 196.196 67.4816 196.081 67.3405C195.965 67.1993 195.799 67.1094 195.617 67.0902L193.629 66.6791V65.2051H199.731L209.088 79.7727V67.8443C209.098 67.6588 209.036 67.4767 208.915 67.3361C208.793 67.1955 208.622 67.1074 208.437 67.0902L206.346 66.6791V65.2051H213.578V66.6791L211.761 67.0902C211.58 67.11 211.414 67.2001 211.299 67.3411C211.183 67.4821 211.128 67.6628 211.144 67.8443" fill="white"/>
<path d="M225.954 66.6791L224.001 67.0902C223.907 67.0931 223.815 67.1154 223.73 67.1557C223.646 67.1959 223.571 67.2533 223.509 67.3242C223.448 67.3951 223.402 67.4779 223.375 67.5675C223.347 67.657 223.339 67.7513 223.349 67.8443V82.1032C223.341 82.1958 223.351 82.2891 223.38 82.3776C223.408 82.4661 223.454 82.548 223.515 82.6183C223.576 82.6887 223.65 82.7461 223.733 82.7872C223.817 82.8282 223.908 82.852 224.001 82.8572L225.954 83.2343V84.6741H217.317V83.2343L219.305 82.8572C219.486 82.8381 219.653 82.7482 219.768 82.607C219.884 82.4658 219.939 82.2848 219.922 82.1032V67.8443C219.939 67.6627 219.884 67.4816 219.768 67.3405C219.653 67.1993 219.486 67.1094 219.305 67.0902L217.317 66.6791V65.2051H225.954V66.6791Z" fill="white"/>
<path d="M231.373 67.7072C231.324 67.5465 231.231 67.4031 231.103 67.2938C230.975 67.1845 230.819 67.1139 230.653 67.0902L229.145 66.6791V65.2051H237.303V66.6791L234.8 67.159L239.908 81.5574L244.501 67.159L241.999 66.6791V65.2051H248.785V66.6791L247.208 67.0902C247.042 67.1139 246.886 67.1845 246.758 67.2938C246.631 67.4031 246.537 67.5465 246.488 67.7072L240.798 84.7424H237.713L231.373 67.7072Z" fill="white"/>
<path d="M264.725 70.1753L264.108 67.8102C264.063 67.633 263.973 67.4705 263.847 67.3384C263.721 67.2062 263.563 67.109 263.388 67.0561C262.593 66.8517 261.774 66.7594 260.954 66.782H258.178V73.8431L264.005 73.6373V75.7649L258.178 75.6278V82.9973H261.605C262.484 83.0267 263.362 82.9228 264.21 82.689C264.374 82.6237 264.521 82.5218 264.64 82.3911C264.758 82.2605 264.846 82.1045 264.895 81.9349L265.855 79.0899L267.535 79.3299C267.498 81.1227 267.326 82.9101 267.02 84.6771H252.145V83.2372L254.133 82.8602C254.315 82.8411 254.481 82.7512 254.597 82.61C254.712 82.4688 254.767 82.2878 254.75 82.1061V67.8443C254.767 67.6627 254.712 67.4816 254.597 67.3405C254.481 67.1993 254.315 67.1094 254.133 67.0902L252.145 66.6791V65.2051H266.37C266.536 66.8571 266.547 68.5211 266.404 70.1753H264.725Z" fill="white"/>
<path d="M272.606 84.6754V83.2356L274.594 82.8585C274.685 82.8517 274.773 82.8265 274.854 82.7845C274.935 82.7424 275.007 82.6843 275.064 82.6138C275.122 82.5433 275.165 82.4618 275.19 82.3742C275.215 82.2867 275.222 82.1949 275.211 82.1045V67.8095C275.219 67.7214 275.21 67.6326 275.183 67.5483C275.156 67.464 275.113 67.386 275.055 67.3189C274.997 67.2517 274.927 67.1968 274.848 67.1574C274.769 67.118 274.682 67.0949 274.594 67.0896L272.606 66.6784V65.2044H276.89C278.33 65.2044 279.495 65.0332 281.209 65.0332C286.385 65.0332 288.408 66.6101 288.408 70.2087C288.408 74.0478 286.043 75.1789 284.191 75.6588C285.288 76.2758 286.008 77.167 286.728 78.6409L288.442 82.0342C288.512 82.2643 288.646 82.4699 288.828 82.6275C289.01 82.785 289.232 82.8881 289.47 82.9248L290.772 83.2331V84.6729H286.453C285.699 84.6729 285.151 83.5418 284.362 81.8279L283.094 78.9487C282.712 77.9592 282.18 77.0343 281.517 76.2066H278.638V82.1371C278.638 82.5824 278.844 82.7883 279.289 82.8571L281.345 83.2341V84.6739L272.606 84.6754ZM284.774 70.3824C284.774 67.8095 283.746 66.5433 280.764 66.5433C279.907 66.5433 279.084 66.6462 278.636 66.6804V74.6668C279.63 74.7356 280.967 74.7356 281.447 74.7356C283.401 74.7014 284.772 73.3996 284.772 70.3814" fill="white"/>
<path d="M301.085 85.0853C298.907 85.0874 296.762 84.5454 294.847 83.5084C294.763 81.8124 294.855 80.1124 295.121 78.4353H297.109L297.554 81.4535C297.609 81.804 297.792 82.1216 298.068 82.3441C298.936 83.1408 300.079 83.5708 301.256 83.544C303.45 83.544 304.615 82.3788 304.615 80.4936C304.615 78.1627 302.799 77.2715 300.296 76.0722C297.828 74.8723 295.086 73.5359 295.086 70.1767C295.086 67.1264 297.313 64.8637 301.702 64.8637C303.524 64.8428 305.332 65.1921 307.015 65.8904C307.11 67.4942 307.029 69.1035 306.775 70.6898H304.856L304.342 68.0506C304.298 67.6771 304.114 67.334 303.828 67.0907C303.093 66.5831 302.218 66.3193 301.326 66.3367C299.372 66.3367 298.307 67.3648 298.307 69.0447C298.307 71.2039 299.952 71.9926 302.763 73.3637C305.506 74.7348 308.076 76.2429 308.076 79.362C308.076 82.1729 306.054 85.0863 301.084 85.0863" fill="white"/>
<path d="M320.658 66.6791L318.704 67.0902C318.61 67.0931 318.518 67.1154 318.433 67.1557C318.349 67.1959 318.274 67.2533 318.212 67.3242C318.151 67.3951 318.105 67.4779 318.078 67.5675C318.05 67.657 318.042 67.7513 318.053 67.8443V82.1032C318.044 82.1958 318.054 82.2891 318.083 82.3776C318.111 82.4661 318.157 82.548 318.218 82.6183C318.279 82.6887 318.353 82.7461 318.437 82.7872C318.52 82.8282 318.611 82.852 318.704 82.8572L320.658 83.2343V84.6741H312.02V83.2343L314.008 82.8572C314.189 82.8381 314.356 82.7482 314.472 82.607C314.587 82.4658 314.642 82.2848 314.625 82.1032V67.8443C314.642 67.6627 314.587 67.4816 314.472 67.3405C314.356 67.1993 314.189 67.1094 314.008 67.0902L312.02 66.6791V65.2051H320.658V66.6791Z" fill="white"/>
<path d="M328.369 84.6741V83.2343L331.317 82.7543C331.408 82.7524 331.497 82.7319 331.58 82.6941C331.662 82.6564 331.737 82.6021 331.798 82.5347C331.858 82.4673 331.905 82.3882 331.934 82.3022C331.964 82.2161 331.975 82.125 331.968 82.0344V66.782H330.632C329.859 66.7648 329.088 66.8454 328.336 67.0219C328.167 67.0727 328.016 67.1707 327.9 67.3042C327.785 67.4378 327.71 67.6014 327.684 67.776L326.794 71.5463H325.046C324.834 69.4373 324.845 67.3117 325.08 65.2051H342.253C342.475 67.313 342.475 69.4384 342.253 71.5463H340.503L339.578 67.7419C339.553 67.5759 339.482 67.4203 339.373 67.293C339.264 67.1656 339.121 67.0717 338.961 67.0219C338.221 66.8427 337.46 66.762 336.699 66.782H335.363V82.0369C335.355 82.1275 335.367 82.2186 335.396 82.3046C335.426 82.3907 335.472 82.4698 335.533 82.5372C335.594 82.6046 335.668 82.6589 335.751 82.6966C335.833 82.7344 335.923 82.7549 336.014 82.7568L338.928 83.2367V84.6766L328.369 84.6741Z" fill="white"/>
<path d="M349.245 84.6741V83.2343L351.61 82.7543C352.056 82.6856 352.262 82.4802 352.262 82.0344V77.1672L346.812 67.6385C346.734 67.4943 346.626 67.368 346.496 67.2676C346.366 67.1673 346.217 67.0951 346.058 67.0556L344.481 66.6786V65.2046H352.741V66.6786L350.548 67.1585L354.764 74.905L358.637 67.1585L356.375 66.6786V65.2046H362.956V66.6786L361.448 67.0215C361.286 67.0546 361.134 67.1244 361.003 67.2255C360.873 67.3265 360.767 67.4561 360.694 67.6043L355.758 77.2033V82.0369C355.758 82.4822 355.964 82.688 356.409 82.7568L358.808 83.2367V84.6766L349.245 84.6741Z" fill="white"/>
<path d="M40.3216 0.441895H0.77002V7.86722C0.77002 7.86722 1.25442 7.89147 6.1672 8.8474C13.787 10.3318 14.2442 9.8167 14.1798 15.2441L14.1828 60.9044C14.1828 74.713 24.6343 85.9477 37.4835 85.9477H40.3216V0.441895Z" fill="white"/>
<g opacity="0.6">
<mask id="mask2_1_733" style="mask-type:luminance" maskUnits="userSpaceOnUse" x="40" y="0" width="40" height="86">
<path d="M79.5355 0.441895H40.3169V85.9477H79.5355V0.441895Z" fill="white"/>
</mask>
<g mask="url(#mask2_1_733)">
<path d="M40.3169 0.441895V41.5264L79.536 85.9477V44.8954L40.3169 0.441895Z" fill="white"/>
</g>
</g>
<path d="M79.5356 0.441895H119.087V7.86722C119.087 7.86722 118.603 7.89147 113.69 8.8474C106.07 10.3318 105.613 9.8167 105.677 15.2441L105.674 60.9044C105.674 74.713 95.2235 85.9477 82.3738 85.9477H79.5356V0.441895Z" fill="white"/>
</g>
</g>
</svg>
