<svg width="36" height="36" viewBox="0 0 36 36" fill="none" xmlns="http://www.w3.org/2000/svg">
<g clip-path="url(#clip0_1_793)">
<g clip-path="url(#clip1_1_793)">
<g clip-path="url(#clip2_1_793)">
<path d="M17.9118 35.8539C8.1103 35.8539 0.0512695 27.7949 0.0512695 17.8845C0.0512695 8.08295 8.1103 0.0239258 17.9118 0.0239258C27.8222 0.0239258 35.7724 8.08295 35.7724 17.8845C35.8813 27.7949 27.8222 35.8539 17.9118 35.8539ZM12.9022 14.2906H9.41717V25.5079H12.9022V14.2906ZM13.2289 10.9145C13.2289 9.82545 12.3576 8.9542 11.1597 8.9542C9.85279 8.9542 8.98154 9.82545 8.98154 10.9145C8.98154 12.0036 9.85279 12.8748 11.0508 12.8748C12.4665 12.8748 13.2289 12.0036 13.2289 10.9145ZM26.8421 19.1913C26.8421 15.7064 24.8818 14.1817 22.377 14.1817C20.4166 14.1817 19.1098 15.2707 18.892 16.0331V14.2906H14.9714C14.9714 15.2707 14.9714 25.5079 14.9714 25.5079H18.892V19.5181C18.892 19.1913 18.892 18.8646 19.0009 18.6468C19.2187 17.9934 19.8721 17.231 20.8523 17.231C22.1591 17.231 22.8126 18.2112 22.8126 19.7359V25.5079H26.7332V19.1913H26.8421Z" fill="white"/>
</g>
</g>
</g>
<defs>
<clipPath id="clip0_1_793">
<rect width="35.83" height="35.83" fill="white" transform="translate(0.0512695 0.0239258)"/>
</clipPath>
<clipPath id="clip1_1_793">
<rect width="35.83" height="35.83" fill="white" transform="translate(0.0512695 0.0239258)"/>
</clipPath>
<clipPath id="clip2_1_793">
<rect width="35.83" height="35.83" fill="white" transform="translate(0.0512695 0.0239258)"/>
</clipPath>
</defs>
</svg>
