<svg width="37" height="36" viewBox="0 0 37 36" fill="none" xmlns="http://www.w3.org/2000/svg">
<g clip-path="url(#clip0_1_778)">
<g clip-path="url(#clip1_1_778)">
<g clip-path="url(#clip2_1_778)">
<path d="M18.4038 35.8539C28.298 35.8539 36.3188 27.8331 36.3188 17.9389C36.3188 8.04474 28.298 0.0239258 18.4038 0.0239258C8.50959 0.0239258 0.48877 8.04474 0.48877 17.9389C0.48877 27.8331 8.50959 35.8539 18.4038 35.8539Z" fill="white"/>
<path d="M18.4038 35.8539C28.298 35.8539 36.3188 27.8331 36.3188 17.9389C36.3188 8.04474 28.298 0.0239258 18.4038 0.0239258C8.50959 0.0239258 0.48877 8.04474 0.48877 17.9389C0.48877 27.8331 8.50959 35.8539 18.4038 35.8539Z" fill="white"/>
<path d="M24.2216 8.75732H27.3568L20.5267 16.5951L28.5884 27.2322H22.3182L17.3916 20.738L11.7931 27.2322H8.54602L15.824 18.8345L8.09814 8.75732H14.5923L19.0711 14.6917L24.2216 8.75732ZM23.2139 25.3287H24.8935L13.6966 10.5488H11.7931L23.2139 25.3287Z" fill="black"/>
</g>
</g>
</g>
<defs>
<clipPath id="clip0_1_778">
<rect width="35.83" height="35.83" fill="white" transform="translate(0.48877 0.0239258)"/>
</clipPath>
<clipPath id="clip1_1_778">
<rect width="35.83" height="35.83" fill="white" transform="translate(0.48877 0.0239258)"/>
</clipPath>
<clipPath id="clip2_1_778">
<rect width="35.83" height="35.83" fill="white" transform="translate(0.48877 0.0239258)"/>
</clipPath>
</defs>
</svg>
