<svg width="37" height="36" viewBox="0 0 37 36" fill="none" xmlns="http://www.w3.org/2000/svg">
<g clip-path="url(#clip0_1_799)">
<g clip-path="url(#clip1_1_799)">
<g clip-path="url(#clip2_1_799)">
<path d="M16.3247 21.4167L22.2261 17.939L16.3247 14.4614V21.4167Z" fill="white"/>
<path d="M18.7475 0.0239258C8.84158 0.0239258 0.83252 8.03299 0.83252 17.9389C0.83252 27.8449 8.84158 35.8539 18.7475 35.8539C28.6535 35.8539 36.6625 27.8449 36.6625 17.9389C36.6625 8.03299 28.6535 0.0239258 18.7475 0.0239258ZM27.705 21.1004C27.705 24.1565 24.6489 24.1565 24.6489 24.1565H12.8461C9.79002 24.2619 9.79002 21.1004 9.79002 21.1004V14.7775C9.79002 11.7214 12.8461 11.7214 12.8461 11.7214H24.5436C27.5996 11.7214 27.5996 14.7775 27.5996 14.7775V21.1004H27.705Z" fill="white"/>
</g>
</g>
</g>
<defs>
<clipPath id="clip0_1_799">
<rect width="35.83" height="35.83" fill="white" transform="translate(0.83252 0.0239258)"/>
</clipPath>
<clipPath id="clip1_1_799">
<rect width="35.83" height="35.83" fill="white" transform="translate(0.83252 0.0239258)"/>
</clipPath>
<clipPath id="clip2_1_799">
<rect width="35.83" height="35.83" fill="white" transform="translate(0.83252 0.0239258)"/>
</clipPath>
</defs>
</svg>
